<?xml version="1.0" encoding="iso-8859-1"?>
<!-- Generator: Adobe Illustrator 19.0.0, SVG Export Plug-In . SVG Version: 6.00 Build 0)  -->
<svg version="1.1" id="Capa_1" xmlns="http://www.w3.org/2000/svg" xmlns:xlink="http://www.w3.org/1999/xlink" x="0px" y="0px"
	 viewBox="0 0 512 512" style="enable-background:new 0 0 512 512;" xml:space="preserve">
<g>
	<g>
		<path d="M352.521,54.479C317.39,19.349,270.683,0,221,0c-49.683,0-96.391,19.348-131.521,54.479C54.348,89.609,35,136.317,35,186
			s19.348,96.391,54.478,131.521C124.609,352.652,171.317,372,221,372s96.391-19.348,131.521-54.479
			C387.651,282.39,407,235.683,407,186S387.652,89.609,352.521,54.479z M331.309,75.691c8.255,8.256,6.859,28.951-3.643,54.011
			c-4.674,11.152-10.873,22.759-18.368,34.511c-11.982-9.363-23.884-19.866-35.264-31.246s-21.883-23.282-31.246-35.265
			c11.752-7.495,23.358-13.694,34.51-18.368c14.211-5.955,27.015-8.981,36.946-8.981C321.826,70.353,327.734,72.117,331.309,75.691z
			 M291.924,188.742c-9.525,12.233-20.282,24.397-32.034,36.149c-11.752,11.752-23.916,22.509-36.15,32.034
			c-10.31-13.282-21.907-26.451-34.561-39.104c-12.654-12.654-25.823-24.251-39.105-34.561c9.525-12.234,20.282-24.398,32.034-36.15
			s23.916-22.509,36.15-32.034c10.311,13.281,21.908,26.449,34.562,39.104C265.474,166.834,278.642,178.432,291.924,188.742z
			 M221,30c23.044,0,45.322,4.972,65.62,14.393c-6.682,1.813-13.667,4.234-20.918,7.273c-13.091,5.486-26.67,12.785-40.343,21.604
			c-9.492-14.718-16.923-29.094-21.768-42.304C209.332,30.332,215.14,30,221,30z M110.692,75.691
			c18.013-18.014,39.66-31.068,63.284-38.504c5.706,16.856,14.884,35.033,26.861,53.461c-13.582,10.495-27.026,22.332-39.941,35.248
			c-12.916,12.915-24.753,26.358-35.248,39.941c-18.428-11.978-36.605-21.156-53.461-26.862
			C79.623,115.353,92.678,93.705,110.692,75.691z M86.665,230.703c-3.039,7.251-5.46,14.234-7.274,20.916
			C69.972,231.32,65,209.044,65,186c0-5.859,0.333-11.667,0.966-17.408c13.21,4.845,27.586,12.275,42.303,21.768
			C99.45,204.033,92.152,217.612,86.665,230.703z M110.691,296.309c-8.255-8.256-6.859-28.952,3.643-54.011
			c4.674-11.152,10.873-22.759,18.368-34.511c11.982,9.362,23.885,19.865,35.265,31.246c11.38,11.38,21.883,23.282,31.245,35.265
			c-11.752,7.495-23.358,13.694-34.51,18.368C139.642,303.167,118.948,304.565,110.691,296.309z M221,342
			c-23.047,0-45.327-4.973-65.628-14.396c6.686-1.813,13.671-4.229,20.925-7.271c13.091-5.486,26.67-12.784,40.343-21.604
			c9.492,14.717,16.923,29.094,21.768,42.304C232.668,341.668,226.86,342,221,342z M331.309,296.309
			c-18.014,18.014-39.661,31.069-63.285,38.504c-5.705-16.856-14.884-35.033-26.861-53.461
			c13.582-10.495,27.026-22.332,39.941-35.248c12.916-12.915,24.753-26.358,35.248-39.94c18.428,11.977,36.605,21.155,53.461,26.861
			C362.377,256.647,349.323,278.295,331.309,296.309z M333.731,181.64c8.818-13.673,16.117-27.252,21.603-40.343
			c3.039-7.251,5.461-14.234,7.274-20.917C372.028,140.679,377,162.956,377,186c0,5.859-0.332,11.667-0.966,17.408
			C362.824,198.563,348.448,191.133,333.731,181.64z"/>
	</g>
</g>
<g>
	<g>
		<path d="M402.02,367.02C450.372,318.667,477,254.38,477,186S450.372,53.333,402.02,4.98l-21.213,21.213
			c88.116,88.118,88.116,231.495,0,319.613C336.742,389.87,278.881,411.899,221,411.895
			c-57.867-0.006-115.753-22.035-159.806-66.088L39.981,367.02c44.799,44.8,103.28,70.933,166.019,74.533V482h-75v30h180v-30h-75
			v-40.447C298.739,437.952,357.22,411.819,402.02,367.02z"/>
	</g>
</g>
<g>
</g>
<g>
</g>
<g>
</g>
<g>
</g>
<g>
</g>
<g>
</g>
<g>
</g>
<g>
</g>
<g>
</g>
<g>
</g>
<g>
</g>
<g>
</g>
<g>
</g>
<g>
</g>
<g>
</g>
</svg>
