<?xml version="1.0" encoding="iso-8859-1"?>
<!-- Generator: Adobe Illustrator 19.0.0, SVG Export Plug-In . SVG Version: 6.00 Build 0)  -->
<svg version="1.1" id="Capa_1" xmlns="http://www.w3.org/2000/svg" xmlns:xlink="http://www.w3.org/1999/xlink" x="0px" y="0px"
	 viewBox="0 0 512 512" style="enable-background:new 0 0 512 512;" xml:space="preserve">
<g>
	<g>
		<path d="M507.758,353.458l-93.712-45.345l93.712-45.345c2.595-1.255,4.242-3.883,4.242-6.765c0-2.882-1.648-5.511-4.242-6.765
			l-93.713-45.345l93.713-45.345c5.545-2.681,5.545-10.849,0-13.531L391.968,88.99c-3.737-1.81-8.231-0.245-10.039,3.491
			c-1.808,3.736-0.245,8.231,3.492,10.039l101.808,49.261L255.958,263.687L24.687,151.782L255.958,39.877l93.157,45.075
			c3.735,1.808,8.23,0.245,10.039-3.491c1.809-3.736,0.245-8.231-3.491-10.039l-96.431-46.66c-2.067-1-4.479-1-6.547,0
			L4.159,145.017c-5.545,2.681-5.545,10.849,0,13.531l93.713,45.345L4.159,249.238c-5.545,2.681-5.545,10.849,0,13.531
			l93.713,45.345L4.159,353.458c-5.546,2.682-5.544,10.848,0,13.531l248.526,120.255c2.05,0.992,4.497,0.992,6.547,0
			l248.526-120.255C513.3,364.306,513.304,356.14,507.758,353.458z M24.687,256.003l90.44-43.761l137.557,66.56
			c2.05,0.992,4.497,0.992,6.547,0l137.557-66.56l90.439,43.761l-231.27,111.905L24.687,256.003z M255.958,472.129L24.687,360.224
			l90.44-43.761l137.557,66.56c2.05,0.992,4.497,0.992,6.547,0l137.558-66.561l90.44,43.762L255.958,472.129z"/>
	</g>
</g>
</svg>
