<svg id="Capa_1" enable-background="new 0 0 512 512" height="512" viewBox="0 0 512 512" width="512" xmlns="http://www.w3.org/2000/svg">
<g><path d="m512 63.138-63.137-63.137-41.349 41.35-20.255-20.255-48.471 48.471-47.783-47.782-152.068 152.067 21.181 21.181 130.887-130.888 26.602 26.602-273.806 273.806c-21.195 21.194-34.436 49.301-37.284 79.14l-6.517 68.306 68.306-6.516c29.839-2.847 57.945-16.089 79.14-37.284l343.458-343.458-20.254-20.254zm-63.137-20.776 20.776 20.776-20.169 20.169-20.776-20.776zm-131.759 91.249 21.683-21.683 61.285 61.284-21.684 21.684zm40.104 82.465-201.072 201.072-61.284-61.284 201.071-201.072zm-291.747 259.587-32.196 3.073 3.072-32.197c2.188-22.926 12.361-44.52 28.645-60.805l8.69-8.69 61.284 61.284-8.69 8.69c-16.285 16.285-37.879 26.458-60.805 28.645zm355.792-323.632-61.285-61.284 27.29-27.29 61.284 61.284z"/></g>
</svg>